<svg id="Layer_1" data-name="Layer 1" xmlns="http://www.w3.org/2000/svg" viewBox="0 0 198.43 198.43"><defs><style>.cls-1{fill:#5e5e5e;}.cls-2{fill:#e06800;}.cls-3{fill:none;}.cls-4{fill:#006361;}</style></defs><path class="cls-1" d="M237.17,132.85l1-.1V133a1.76,1.76,0,0,0,.21.85,1.39,1.39,0,0,0,.7.59,2.9,2.9,0,0,0,1.16.21,2.2,2.2,0,0,0,1.45-.42,1.21,1.21,0,0,0,.5-.95,1,1,0,0,0-.26-.69,5.26,5.26,0,0,0-1.48-.82,11.2,11.2,0,0,1-1.28-.62,2.65,2.65,0,0,1-.79-.77,1.78,1.78,0,0,1-.26-1,1.91,1.91,0,0,1,.34-1.1,2.12,2.12,0,0,1,1-.76,4,4,0,0,1,1.46-.26,3.66,3.66,0,0,1,1.64.33,2.08,2.08,0,0,1,1,.87,2.12,2.12,0,0,1,.3,1,1.1,1.1,0,0,1,0,.16l-1,.08a1.81,1.81,0,0,0-.06-.52,1.28,1.28,0,0,0-.34-.56,1.76,1.76,0,0,0-.62-.37,2.77,2.77,0,0,0-.89-.13,2.09,2.09,0,0,0-1.35.39,1,1,0,0,0-.37.79.93.93,0,0,0,.15.52,1.46,1.46,0,0,0,.55.45c.18.11.63.32,1.34.63a9.57,9.57,0,0,1,1.18.59,2.08,2.08,0,0,1,.66.7,1.79,1.79,0,0,1,.24.93,1.94,1.94,0,0,1-.4,1.19,2.55,2.55,0,0,1-1.08.84,4,4,0,0,1-1.59.3A3.81,3.81,0,0,1,238,135,2.39,2.39,0,0,1,237.17,132.85Z" transform="translate(-213.47)"/><path class="cls-1" d="M244.33,133.23a4,4,0,0,1,1-2.79,2.72,2.72,0,0,1,2.14-.91,2.26,2.26,0,0,1,1.68.65,2.41,2.41,0,0,1,.64,1.75,4.39,4.39,0,0,1-.4,1.85,3,3,0,0,1-2.7,1.76,2.65,2.65,0,0,1-1.23-.28,2.07,2.07,0,0,1-.84-.82A2.49,2.49,0,0,1,244.33,133.23Zm1-.1a1.77,1.77,0,0,0,.39,1.24,1.31,1.31,0,0,0,1,.42,1.72,1.72,0,0,0,.62-.13,1.81,1.81,0,0,0,.57-.39,2.67,2.67,0,0,0,.46-.59,3.89,3.89,0,0,0,.3-.72,3.52,3.52,0,0,0,.17-1,1.68,1.68,0,0,0-.4-1.21,1.27,1.27,0,0,0-1-.43,1.65,1.65,0,0,0-.84.22,2.15,2.15,0,0,0-.68.64,2.67,2.67,0,0,0-.45,1A4,4,0,0,0,245.31,133.13Z" transform="translate(-213.47)"/><path class="cls-1" d="M250.26,135.42l1.66-7.95h1l-1.66,7.95Z" transform="translate(-213.47)"/><path class="cls-1" d="M256.73,134.37a2.87,2.87,0,0,1-2.12,1.17,1.52,1.52,0,0,1-1.08-.38,1.21,1.21,0,0,1-.4-.93,7.37,7.37,0,0,1,.18-1.25l.69-3.32h1l-.76,3.68a3.37,3.37,0,0,0-.1.71.63.63,0,0,0,.2.51.82.82,0,0,0,.58.18,1.66,1.66,0,0,0,.8-.2,2.09,2.09,0,0,0,.68-.54,2.67,2.67,0,0,0,.46-.81,6.63,6.63,0,0,0,.28-1l.52-2.49h1l-1.2,5.76h-.91Z" transform="translate(-213.47)"/><path class="cls-1" d="M261.27,134.62l-.16.8a2.84,2.84,0,0,1-.69.09,1.41,1.41,0,0,1-.93-.28.76.76,0,0,1-.26-.6,6.78,6.78,0,0,1,.14-.87l.7-3.34h-.78l.16-.76h.78l.29-1.42,1.13-.67-.44,2.09h1l-.16.76h-1l-.67,3.18a6,6,0,0,0-.12.73.33.33,0,0,0,.1.26.5.5,0,0,0,.33.09A2.58,2.58,0,0,0,261.27,134.62Z" transform="translate(-213.47)"/><path class="cls-1" d="M262,135.42l1.2-5.76h1L263,135.42Zm1.43-6.84.24-1.11h1l-.23,1.11Z" transform="translate(-213.47)"/><path class="cls-1" d="M264.7,133.23a4,4,0,0,1,1-2.79,2.75,2.75,0,0,1,2.15-.91,2.28,2.28,0,0,1,1.68.65,2.41,2.41,0,0,1,.63,1.75,4.24,4.24,0,0,1-.4,1.85,3,3,0,0,1-1.14,1.31,2.94,2.94,0,0,1-1.56.45,2.61,2.61,0,0,1-1.22-.28,2,2,0,0,1-.84-.82A2.49,2.49,0,0,1,264.7,133.23Zm1-.1a1.77,1.77,0,0,0,.39,1.24,1.29,1.29,0,0,0,1,.42,1.77,1.77,0,0,0,.63-.13,2.07,2.07,0,0,0,.57-.39,2.37,2.37,0,0,0,.45-.59,2.88,2.88,0,0,0,.3-.72,3.22,3.22,0,0,0,.17-1,1.73,1.73,0,0,0-.39-1.21,1.27,1.27,0,0,0-1-.43,1.6,1.6,0,0,0-.84.22,2.29,2.29,0,0,0-.69.64,3,3,0,0,0-.45,1A4.42,4.42,0,0,0,265.68,133.13Z" transform="translate(-213.47)"/><path class="cls-1" d="M270.7,135.42l1.2-5.76h.89l-.21,1a4.78,4.78,0,0,1,1.09-.86,2.1,2.1,0,0,1,1-.27,1.49,1.49,0,0,1,1.1.38,1.31,1.31,0,0,1,.4,1,6.1,6.1,0,0,1-.14,1l-.73,3.49h-1l.76-3.65a4.07,4.07,0,0,0,.12-.79.62.62,0,0,0-.2-.47.88.88,0,0,0-.57-.17,2,2,0,0,0-1.35.54,3.44,3.44,0,0,0-.86,1.86l-.56,2.68Z" transform="translate(-213.47)"/><path class="cls-1" d="M280.07,135.42l1.66-7.95h3.32a3.1,3.1,0,0,1,1.29.2,1.52,1.52,0,0,1,.71.67,2.08,2.08,0,0,1,.29,1.08,2.78,2.78,0,0,1-.2,1,2.85,2.85,0,0,1-.51.84,2.48,2.48,0,0,1-.62.5,2.71,2.71,0,0,1-.67.25,6.77,6.77,0,0,1-1.55.18h-2l-.67,3.23Zm1.92-4.13h1.75a3.75,3.75,0,0,0,1.5-.22,1.84,1.84,0,0,0,1.05-1.62,1.21,1.21,0,0,0-.15-.64.89.89,0,0,0-.43-.36,3.07,3.07,0,0,0-1.06-.12h-2Z" transform="translate(-213.47)"/><path class="cls-1" d="M287.36,135.42l1.21-5.76h.86l-.24,1.17a4.14,4.14,0,0,1,.87-1,1.38,1.38,0,0,1,.87-.32,1.67,1.67,0,0,1,.72.21l-.4.91a1,1,0,0,0-.56-.18,1.54,1.54,0,0,0-1.06.57,4.4,4.4,0,0,0-.85,2.07l-.48,2.31Z" transform="translate(-213.47)"/><path class="cls-1" d="M291.23,133.23a4,4,0,0,1,1-2.79,2.72,2.72,0,0,1,2.14-.91,2.24,2.24,0,0,1,1.68.65,2.41,2.41,0,0,1,.64,1.75,4.39,4.39,0,0,1-.4,1.85,3,3,0,0,1-2.7,1.76,2.65,2.65,0,0,1-1.23-.28,2.07,2.07,0,0,1-.84-.82A2.49,2.49,0,0,1,291.23,133.23Zm1-.1a1.73,1.73,0,0,0,.4,1.24,1.29,1.29,0,0,0,1,.42,1.72,1.72,0,0,0,.62-.13,2,2,0,0,0,.58-.39,3,3,0,0,0,.45-.59,3.89,3.89,0,0,0,.3-.72,3.52,3.52,0,0,0,.17-1,1.68,1.68,0,0,0-.4-1.21,1.27,1.27,0,0,0-1-.43,1.65,1.65,0,0,0-.84.22,2.15,2.15,0,0,0-.68.64,2.67,2.67,0,0,0-.45,1A4,4,0,0,0,292.21,133.13Z" transform="translate(-213.47)"/><path class="cls-1" d="M298.69,135.42l-.95-5.76h1l.49,3.17c.06.35.12.91.2,1.7q.28-.61.72-1.41l1.93-3.46h1l-3.29,5.76Z" transform="translate(-213.47)"/><path class="cls-1" d="M302.75,135.42l1.2-5.76h1l-1.2,5.76Zm1.43-6.84.23-1.11h1l-.24,1.11Z" transform="translate(-213.47)"/><path class="cls-1" d="M309.13,134.58a2.36,2.36,0,0,1-1.75,1,1.78,1.78,0,0,1-1.37-.6,2.55,2.55,0,0,1-.54-1.75,4.23,4.23,0,0,1,.43-1.92A3.33,3.33,0,0,1,307,130a2.29,2.29,0,0,1,1.3-.43,1.75,1.75,0,0,1,1.62,1l.65-3.09h1l-1.66,7.95H309ZM306.44,133a3,3,0,0,0,.12.95,1.26,1.26,0,0,0,.41.58,1.08,1.08,0,0,0,.69.23,1.55,1.55,0,0,0,1.21-.69,3.61,3.61,0,0,0,.72-2.28,1.55,1.55,0,0,0-.35-1.07,1.17,1.17,0,0,0-.9-.38,1.41,1.41,0,0,0-.65.15,2,2,0,0,0-.57.54,3.37,3.37,0,0,0-.48.95A3.32,3.32,0,0,0,306.44,133Z" transform="translate(-213.47)"/><path class="cls-1" d="M315.65,133.46l1,.1a2.9,2.9,0,0,1-.95,1.35,2.62,2.62,0,0,1-1.76.63,2.37,2.37,0,0,1-1.18-.29,2,2,0,0,1-.81-.86,2.8,2.8,0,0,1-.28-1.28,4.11,4.11,0,0,1,.44-1.83A3.16,3.16,0,0,1,313.2,130a2.75,2.75,0,0,1,1.5-.43,2.17,2.17,0,0,1,1.65.64,2.4,2.4,0,0,1,.61,1.74,4.33,4.33,0,0,1-.08.87h-4.23a1.69,1.69,0,0,0,0,.3,1.89,1.89,0,0,0,.37,1.24,1.19,1.19,0,0,0,.91.42,1.78,1.78,0,0,0,1-.33A2.19,2.19,0,0,0,315.65,133.46ZM312.8,132H316a2,2,0,0,0,0-.21,1.56,1.56,0,0,0-.37-1.13,1.22,1.22,0,0,0-.95-.4,1.72,1.72,0,0,0-1.14.44A2.57,2.57,0,0,0,312.8,132Z" transform="translate(-213.47)"/><path class="cls-1" d="M317.6,135.42l1.2-5.76h.87l-.24,1.17a3.74,3.74,0,0,1,.87-1,1.38,1.38,0,0,1,.87-.32,1.75,1.75,0,0,1,.72.21l-.4.91a1,1,0,0,0-.56-.18,1.52,1.52,0,0,0-1.06.57,4.4,4.4,0,0,0-.85,2.07l-.49,2.31Z" transform="translate(-213.47)"/><path class="cls-1" d="M324.52,135.42l1-5h-.88l.16-.76h.88l.17-.82a3.18,3.18,0,0,1,.27-.88,1.08,1.08,0,0,1,.45-.45,1.68,1.68,0,0,1,.85-.18,5.16,5.16,0,0,1,1.08.16l-.18.86a3.25,3.25,0,0,0-.83-.13.58.58,0,0,0-.44.14,1.4,1.4,0,0,0-.26.68l-.13.62h1.1l-.16.76h-1.1l-1,5Z" transform="translate(-213.47)"/><path class="cls-1" d="M327.64,133.23a4,4,0,0,1,1-2.79,2.75,2.75,0,0,1,2.15-.91,2.28,2.28,0,0,1,1.68.65,2.41,2.41,0,0,1,.63,1.75,4.24,4.24,0,0,1-.4,1.85,3,3,0,0,1-1.14,1.31,2.94,2.94,0,0,1-1.56.45,2.61,2.61,0,0,1-1.22-.28,2,2,0,0,1-.84-.82A2.49,2.49,0,0,1,327.64,133.23Zm1-.1a1.77,1.77,0,0,0,.39,1.24,1.29,1.29,0,0,0,1,.42,1.77,1.77,0,0,0,.63-.13,2.07,2.07,0,0,0,.57-.39,2.37,2.37,0,0,0,.45-.59,2.88,2.88,0,0,0,.3-.72,3.22,3.22,0,0,0,.17-1,1.73,1.73,0,0,0-.39-1.21,1.27,1.27,0,0,0-1-.43,1.6,1.6,0,0,0-.84.22,2.29,2.29,0,0,0-.69.64,3,3,0,0,0-.45,1A4.42,4.42,0,0,0,328.62,133.13Z" transform="translate(-213.47)"/><path class="cls-1" d="M333.64,135.42l1.2-5.76h.87l-.24,1.17a3.74,3.74,0,0,1,.87-1,1.38,1.38,0,0,1,.87-.32,1.75,1.75,0,0,1,.72.21l-.4.91a1,1,0,0,0-.56-.18,1.51,1.51,0,0,0-1.06.57,4.4,4.4,0,0,0-.85,2.07l-.49,2.31Z" transform="translate(-213.47)"/><path class="cls-1" d="M340.69,135.42l1.66-7.95h1.06l-1.66,7.95Z" transform="translate(-213.47)"/><path class="cls-1" d="M343.5,135.42l1.21-5.76h.89l-.21,1a4.55,4.55,0,0,1,1.08-.86,2.17,2.17,0,0,1,1-.27,1.5,1.5,0,0,1,1.1.38,1.35,1.35,0,0,1,.4,1,5.39,5.39,0,0,1-.15,1l-.73,3.49h-1l.77-3.65A4.76,4.76,0,0,0,348,131a.62.62,0,0,0-.2-.47.86.86,0,0,0-.57-.17,1.93,1.93,0,0,0-1.34.54,3.51,3.51,0,0,0-.87,1.86l-.55,2.68Z" transform="translate(-213.47)"/><path class="cls-1" d="M353.56,134.58a2.38,2.38,0,0,1-1.76,1,1.76,1.76,0,0,1-1.36-.6,2.55,2.55,0,0,1-.55-1.75,4.24,4.24,0,0,1,.44-1.92A3.23,3.23,0,0,1,351.4,130a2.34,2.34,0,0,1,1.3-.43,1.73,1.73,0,0,1,1.62,1l.65-3.09h1l-1.66,7.95h-.9ZM350.87,133a3,3,0,0,0,.12.95,1.26,1.26,0,0,0,.41.58,1.08,1.08,0,0,0,.69.23,1.53,1.53,0,0,0,1.2-.69,3.56,3.56,0,0,0,.73-2.28,1.51,1.51,0,0,0-.36-1.07,1.17,1.17,0,0,0-.9-.38,1.37,1.37,0,0,0-.64.15,2,2,0,0,0-.57.54,3.37,3.37,0,0,0-.48.95A3.32,3.32,0,0,0,350.87,133Z" transform="translate(-213.47)"/><path class="cls-1" d="M359.78,134.37a2.85,2.85,0,0,1-2.12,1.17,1.48,1.48,0,0,1-1.07-.38,1.19,1.19,0,0,1-.41-.93,7.37,7.37,0,0,1,.18-1.25l.7-3.32h1l-.77,3.68a3.37,3.37,0,0,0-.1.71.66.66,0,0,0,.2.51.82.82,0,0,0,.58.18,1.73,1.73,0,0,0,.81-.2,2,2,0,0,0,.67-.54,2.92,2.92,0,0,0,.47-.81,6.92,6.92,0,0,0,.27-1l.52-2.49h1l-1.2,5.76h-.9Z" transform="translate(-213.47)"/><path class="cls-1" d="M362.12,133.45l1-.06a1.75,1.75,0,0,0,.13.72,1.08,1.08,0,0,0,.48.49,1.73,1.73,0,0,0,.81.19,1.57,1.57,0,0,0,1-.26.78.78,0,0,0,.33-.62.73.73,0,0,0-.2-.48,3,3,0,0,0-1-.56,8.15,8.15,0,0,1-1-.47,1.63,1.63,0,0,1-.55-.52,1.31,1.31,0,0,1-.18-.69,1.51,1.51,0,0,1,.54-1.17,2.17,2.17,0,0,1,1.52-.49,2.45,2.45,0,0,1,1.65.5,1.73,1.73,0,0,1,.58,1.32l-1,.06a1.08,1.08,0,0,0-.36-.82,1.45,1.45,0,0,0-1-.3,1.21,1.21,0,0,0-.8.23.68.68,0,0,0-.28.5.59.59,0,0,0,.25.48,3.26,3.26,0,0,0,.84.43,5.79,5.79,0,0,1,1.42.78,1.44,1.44,0,0,1,.46,1.09,1.56,1.56,0,0,1-.26.84,1.9,1.9,0,0,1-.8.66,3.13,3.13,0,0,1-1.27.24,2.87,2.87,0,0,1-1.7-.49A1.72,1.72,0,0,1,362.12,133.45Z" transform="translate(-213.47)"/><path class="cls-1" d="M369.87,134.62l-.16.8a2.84,2.84,0,0,1-.69.09,1.41,1.41,0,0,1-.93-.28.76.76,0,0,1-.26-.6,6.78,6.78,0,0,1,.14-.87l.7-3.34h-.77l.15-.76h.78l.3-1.42,1.12-.67-.44,2.09h1l-.17.76h-1L369,133.6a5,5,0,0,0-.13.73.33.33,0,0,0,.1.26.5.5,0,0,0,.33.09A2.52,2.52,0,0,0,369.87,134.62Z" transform="translate(-213.47)"/><path class="cls-1" d="M370.66,135.42l1.2-5.76h.87l-.24,1.17a3.74,3.74,0,0,1,.87-1,1.38,1.38,0,0,1,.87-.32,1.75,1.75,0,0,1,.72.21l-.4.91a1,1,0,0,0-.56-.18,1.52,1.52,0,0,0-1.06.57,4.4,4.4,0,0,0-.85,2.07l-.49,2.31Z" transform="translate(-213.47)"/><path class="cls-1" d="M374.32,135.42l1.2-5.76h1l-1.21,5.76Zm1.43-6.84.23-1.11h1l-.23,1.11Z" transform="translate(-213.47)"/><path class="cls-1" d="M381.05,133.46l1,.1a3,3,0,0,1-.95,1.35,2.62,2.62,0,0,1-1.76.63,2.37,2.37,0,0,1-1.18-.29,2,2,0,0,1-.81-.86,2.8,2.8,0,0,1-.28-1.28,4.11,4.11,0,0,1,.44-1.83A3.09,3.09,0,0,1,378.6,130a2.75,2.75,0,0,1,1.5-.43,2.15,2.15,0,0,1,1.64.64,2.4,2.4,0,0,1,.62,1.74,5.21,5.21,0,0,1-.08.87H378c0,.11,0,.21,0,.3a1.89,1.89,0,0,0,.37,1.24,1.17,1.17,0,0,0,.91.42,1.73,1.73,0,0,0,1-.33A2.13,2.13,0,0,0,381.05,133.46ZM378.2,132h3.23a2,2,0,0,0,0-.21,1.6,1.6,0,0,0-.37-1.13,1.22,1.22,0,0,0-.95-.4,1.76,1.76,0,0,0-1.15.44A2.63,2.63,0,0,0,378.2,132Z" transform="translate(-213.47)"/><path class="cls-1" d="M383.09,133.45l1-.06a1.93,1.93,0,0,0,.13.72,1.08,1.08,0,0,0,.48.49,1.8,1.8,0,0,0,.82.19,1.54,1.54,0,0,0,1-.26.78.78,0,0,0,.33-.62.73.73,0,0,0-.2-.48,3.07,3.07,0,0,0-1-.56,8.58,8.58,0,0,1-1-.47,1.72,1.72,0,0,1-.55-.52,1.31,1.31,0,0,1-.18-.69,1.51,1.51,0,0,1,.54-1.17,2.17,2.17,0,0,1,1.52-.49,2.45,2.45,0,0,1,1.65.5,1.74,1.74,0,0,1,.59,1.32l-1,.06a1.13,1.13,0,0,0-.37-.82,1.45,1.45,0,0,0-1-.3,1.16,1.16,0,0,0-.79.23.67.67,0,0,0-.29.5.62.62,0,0,0,.25.48,3.69,3.69,0,0,0,.84.43,5.79,5.79,0,0,1,1.42.78,1.44,1.44,0,0,1,.47,1.09,1.49,1.49,0,0,1-.27.84,1.84,1.84,0,0,1-.8.66,3.09,3.09,0,0,1-1.27.24,2.87,2.87,0,0,1-1.7-.49A1.77,1.77,0,0,1,383.09,133.45Z" transform="translate(-213.47)"/><polygon class="cls-2" points="23.66 62.87 94.51 62.87 59.09 121.35 35.73 82.41 53.92 82.41 55.38 80.12 34.19 80.12 32.66 77.53 57.01 77.53 58.47 75.23 31.13 75.23 29.59 72.64 60.11 72.64 61.65 70.2 28.25 70.2 26.72 67.76 63.2 67.76 64.83 65.17 25.19 65.17 23.66 62.87"/><path class="cls-3" d="M278.3,65.18" transform="translate(-213.47)"/><path class="cls-3" d="M267.39,82.41" transform="translate(-213.47)"/><rect class="cls-4" x="66.57" y="68.17" width="54.06" height="2.65"/><rect class="cls-4" x="66.57" y="62.87" width="54.06" height="2.49"/><rect class="cls-4" x="66.57" y="73.46" width="54.06" height="2.8"/><polygon class="cls-4" points="66.58 84.04 66.58 86.84 79.99 86.84 79.99 121.24 107.29 121.24 107.29 86.84 120.64 86.84 120.64 84.04 66.58 84.04"/><rect class="cls-4" x="66.57" y="78.75" width="54.06" height="2.8"/><polygon class="cls-4" points="147.93 97.12 147.93 62.87 120.7 62.87 120.64 62.87 120.64 65.36 120.64 68.17 120.64 70.81 120.64 73.46 120.64 76.26 120.64 78.75 120.64 81.55 120.64 84.04 120.64 86.84 120.64 99.92 174.76 99.92 174.76 97.12 147.93 97.12"/><rect class="cls-4" x="120.64" y="118.44" width="54.13" height="2.8"/><rect class="cls-4" x="120.64" y="107.86" width="54.13" height="2.64"/><rect class="cls-4" x="120.64" y="102.57" width="54.13" height="2.65"/><rect class="cls-4" x="120.64" y="113.15" width="54.13" height="2.8"/><rect class="cls-3" width="198.43" height="198.43"/></svg>