<svg id="Layer_1" data-name="Layer 1" xmlns="http://www.w3.org/2000/svg" viewBox="0 0 151.1 72.68"><defs><style>.cls-1{fill:#5e5e5e;}.cls-2{fill:#e06800;}.cls-3{fill:none;}.cls-4{fill:#006361;}</style></defs><path class="cls-1" d="M0,125.22l1-.1v.28a1.69,1.69,0,0,0,.21.84,1.34,1.34,0,0,0,.7.59,2.9,2.9,0,0,0,1.16.21,2.2,2.2,0,0,0,1.45-.42,1.18,1.18,0,0,0,.5-1,1,1,0,0,0-.26-.68,5,5,0,0,0-1.48-.83,11.2,11.2,0,0,1-1.28-.62,2.53,2.53,0,0,1-.79-.77,1.75,1.75,0,0,1-.26-.94,2,2,0,0,1,.34-1.11,2,2,0,0,1,1-.75,3.76,3.76,0,0,1,1.46-.26,3.8,3.8,0,0,1,1.64.32,2.16,2.16,0,0,1,1.27,1.9,1.23,1.23,0,0,1,0,.17l-1,.08a1.84,1.84,0,0,0-.06-.53,1.34,1.34,0,0,0-.34-.56,1.61,1.61,0,0,0-.62-.36,2.81,2.81,0,0,0-.89-.14,2.09,2.09,0,0,0-1.35.39,1,1,0,0,0-.37.79.91.91,0,0,0,.15.52,1.47,1.47,0,0,0,.55.46c.18.1.63.31,1.34.62a8.07,8.07,0,0,1,1.18.6,2,2,0,0,1,.66.69,1.84,1.84,0,0,1,.24.93,1.94,1.94,0,0,1-.4,1.19,2.49,2.49,0,0,1-1.08.85,4,4,0,0,1-1.59.29,3.79,3.79,0,0,1-2.2-.58A2.41,2.41,0,0,1,0,125.22Z" transform="translate(0 -55.25)"/><path class="cls-1" d="M7.2,125.6a4,4,0,0,1,1-2.79,2.79,2.79,0,0,1,2.15-.91,2.26,2.26,0,0,1,1.68.65,2.44,2.44,0,0,1,.64,1.76,4.2,4.2,0,0,1-.41,1.84,3,3,0,0,1-2.69,1.77,2.66,2.66,0,0,1-1.23-.29,2,2,0,0,1-.84-.81A2.53,2.53,0,0,1,7.2,125.6Zm1-.09a1.75,1.75,0,0,0,.39,1.23,1.3,1.3,0,0,0,1,.42,1.53,1.53,0,0,0,.62-.13,1.63,1.63,0,0,0,.57-.38,3,3,0,0,0,.46-.6,3.89,3.89,0,0,0,.3-.72,3.47,3.47,0,0,0,.17-1,1.75,1.75,0,0,0-.4-1.21,1.27,1.27,0,0,0-1-.43,1.65,1.65,0,0,0-.84.22,2.27,2.27,0,0,0-.68.64,2.64,2.64,0,0,0-.45,1A3.85,3.85,0,0,0,8.18,125.51Z" transform="translate(0 -55.25)"/><path class="cls-1" d="M13.13,127.79l1.66-8h1l-1.66,8Z" transform="translate(0 -55.25)"/><path class="cls-1" d="M19.6,126.75a2.9,2.9,0,0,1-2.12,1.17,1.56,1.56,0,0,1-1.08-.38,1.25,1.25,0,0,1-.4-.94,7.16,7.16,0,0,1,.18-1.24l.69-3.33h1l-.77,3.68a4.07,4.07,0,0,0-.09.72.64.64,0,0,0,.2.51.82.82,0,0,0,.58.18,1.79,1.79,0,0,0,.8-.2,2.26,2.26,0,0,0,.68-.55,2.71,2.71,0,0,0,.46-.8,6.52,6.52,0,0,0,.28-1l.52-2.49h1l-1.2,5.76h-.91Z" transform="translate(0 -55.25)"/><path class="cls-1" d="M24.14,127l-.17.8a2.33,2.33,0,0,1-.68.1,1.42,1.42,0,0,1-.93-.29.74.74,0,0,1-.26-.59,6.28,6.28,0,0,1,.14-.87l.7-3.35h-.78l.16-.76h.78l.29-1.41,1.13-.68L24.08,122h1l-.16.76h-1L23.25,126a6.34,6.34,0,0,0-.12.73.31.31,0,0,0,.1.26.45.45,0,0,0,.33.1A2.1,2.1,0,0,0,24.14,127Z" transform="translate(0 -55.25)"/><path class="cls-1" d="M24.89,127.79l1.2-5.76h1l-1.21,5.76ZM26.32,121l.23-1.11h1L27.3,121Z" transform="translate(0 -55.25)"/><path class="cls-1" d="M27.57,125.6a4,4,0,0,1,1-2.79,2.78,2.78,0,0,1,2.15-.91,2.24,2.24,0,0,1,1.67.65,2.4,2.4,0,0,1,.64,1.76,4.2,4.2,0,0,1-.4,1.84,3,3,0,0,1-1.14,1.31,2.86,2.86,0,0,1-1.56.46,2.61,2.61,0,0,1-1.22-.29,1.94,1.94,0,0,1-.84-.81A2.53,2.53,0,0,1,27.57,125.6Zm1-.09a1.75,1.75,0,0,0,.39,1.23,1.29,1.29,0,0,0,1,.42,1.58,1.58,0,0,0,.63-.13,1.83,1.83,0,0,0,.57-.38,2.62,2.62,0,0,0,.45-.6,2.88,2.88,0,0,0,.3-.72,3.17,3.17,0,0,0,.17-1,1.74,1.74,0,0,0-.39-1.21,1.27,1.27,0,0,0-1-.43,1.6,1.6,0,0,0-.84.22,2.43,2.43,0,0,0-.69.64,3,3,0,0,0-.45,1A4.28,4.28,0,0,0,28.55,125.51Z" transform="translate(0 -55.25)"/><path class="cls-1" d="M33.57,127.79l1.2-5.76h.89l-.21,1a4.77,4.77,0,0,1,1.08-.87,2.17,2.17,0,0,1,1-.27,1.53,1.53,0,0,1,1.1.38,1.31,1.31,0,0,1,.4,1,6,6,0,0,1-.14,1l-.73,3.49h-1l.76-3.65a3.78,3.78,0,0,0,.11-.79.59.59,0,0,0-.19-.46.86.86,0,0,0-.58-.18,1.94,1.94,0,0,0-1.34.54,3.44,3.44,0,0,0-.86,1.86l-.56,2.68Z" transform="translate(0 -55.25)"/><path class="cls-1" d="M42.94,127.79l1.66-8h3.32a3.28,3.28,0,0,1,1.29.2,1.55,1.55,0,0,1,.71.68,2.07,2.07,0,0,1,.29,1.07,2.89,2.89,0,0,1-.71,1.85,2.72,2.72,0,0,1-.62.5,2.68,2.68,0,0,1-.67.24,6.77,6.77,0,0,1-1.55.18h-2L44,127.79Zm1.92-4.13h1.75a3.75,3.75,0,0,0,1.5-.22,1.64,1.64,0,0,0,.76-.67,1.74,1.74,0,0,0,.29-1,1.24,1.24,0,0,0-.15-.64,1,1,0,0,0-.43-.36,3.07,3.07,0,0,0-1.06-.12h-2Z" transform="translate(0 -55.25)"/><path class="cls-1" d="M50.23,127.79,51.44,122h.86l-.24,1.18a4.21,4.21,0,0,1,.87-1,1.44,1.44,0,0,1,.87-.32,1.67,1.67,0,0,1,.72.21l-.4.91a1,1,0,0,0-.56-.18,1.54,1.54,0,0,0-1.06.57,4.5,4.5,0,0,0-.85,2.07l-.48,2.31Z" transform="translate(0 -55.25)"/><path class="cls-1" d="M54.1,125.6a4,4,0,0,1,1-2.79,2.76,2.76,0,0,1,2.14-.91,2.26,2.26,0,0,1,1.68.65,2.44,2.44,0,0,1,.64,1.76,4.34,4.34,0,0,1-.4,1.84A3,3,0,0,1,58,127.46a2.86,2.86,0,0,1-1.55.46,2.66,2.66,0,0,1-1.23-.29,2,2,0,0,1-.84-.81A2.53,2.53,0,0,1,54.1,125.6Zm1-.09a1.75,1.75,0,0,0,.39,1.23,1.31,1.31,0,0,0,1,.42,1.53,1.53,0,0,0,.62-.13,1.63,1.63,0,0,0,.57-.38,3,3,0,0,0,.46-.6,3.89,3.89,0,0,0,.3-.72,3.47,3.47,0,0,0,.17-1,1.7,1.7,0,0,0-.4-1.21,1.27,1.27,0,0,0-1-.43,1.65,1.65,0,0,0-.84.22,2.27,2.27,0,0,0-.68.64,2.64,2.64,0,0,0-.45,1A3.85,3.85,0,0,0,55.08,125.51Z" transform="translate(0 -55.25)"/><path class="cls-1" d="M61.56,127.79l-1-5.76h1l.49,3.17c.06.35.12.92.2,1.7.19-.41.43-.88.72-1.4L64.91,122h1l-3.29,5.76Z" transform="translate(0 -55.25)"/><path class="cls-1" d="M65.62,127.79l1.2-5.76h1l-1.2,5.76ZM67.05,121l.23-1.11h1L68,121Z" transform="translate(0 -55.25)"/><path class="cls-1" d="M72,127a2.34,2.34,0,0,1-1.75,1,1.76,1.76,0,0,1-1.37-.61,2.53,2.53,0,0,1-.54-1.75,4.23,4.23,0,0,1,.43-1.92,3.22,3.22,0,0,1,1.08-1.3,2.31,2.31,0,0,1,1.3-.44,1.76,1.76,0,0,1,1.62,1l.65-3.1h1l-1.66,8h-.9Zm-2.69-1.57a3.05,3.05,0,0,0,.12,1,1.23,1.23,0,0,0,.41.57,1,1,0,0,0,.69.23,1.55,1.55,0,0,0,1.21-.69,3.57,3.57,0,0,0,.72-2.28,1.57,1.57,0,0,0-.35-1.07,1.2,1.2,0,0,0-.9-.38,1.31,1.31,0,0,0-.65.16,1.84,1.84,0,0,0-.57.53,3.31,3.31,0,0,0-.48,1A3.21,3.21,0,0,0,69.31,125.38Z" transform="translate(0 -55.25)"/><path class="cls-1" d="M78.52,125.83l1,.1a2.9,2.9,0,0,1-1,1.35,2.58,2.58,0,0,1-1.76.64,2.38,2.38,0,0,1-1.18-.3,1.93,1.93,0,0,1-.81-.86,2.77,2.77,0,0,1-.28-1.28,4.11,4.11,0,0,1,.44-1.83,3.16,3.16,0,0,1,1.13-1.32,2.84,2.84,0,0,1,1.5-.43,2.21,2.21,0,0,1,1.65.64,2.42,2.42,0,0,1,.61,1.75,4.24,4.24,0,0,1-.08.86H75.51c0,.12,0,.22,0,.31a1.84,1.84,0,0,0,.37,1.23,1.2,1.2,0,0,0,.91.43,1.78,1.78,0,0,0,1-.33A2.16,2.16,0,0,0,78.52,125.83Zm-2.85-1.42H78.9a2.13,2.13,0,0,0,0-.22,1.57,1.57,0,0,0-.37-1.13,1.25,1.25,0,0,0-1-.39,1.75,1.75,0,0,0-1.15.43A2.62,2.62,0,0,0,75.67,124.41Z" transform="translate(0 -55.25)"/><path class="cls-1" d="M80.47,127.79l1.2-5.76h.87l-.24,1.18a3.81,3.81,0,0,1,.87-1,1.44,1.44,0,0,1,.87-.32,1.75,1.75,0,0,1,.72.21l-.4.91a1,1,0,0,0-.56-.18,1.51,1.51,0,0,0-1.06.57,4.5,4.5,0,0,0-.85,2.07l-.49,2.31Z" transform="translate(0 -55.25)"/><path class="cls-1" d="M87.39,127.79l1-5h-.88l.16-.76h.88l.17-.82a3.3,3.3,0,0,1,.27-.88,1.08,1.08,0,0,1,.45-.45,1.78,1.78,0,0,1,.84-.17,5.71,5.71,0,0,1,1.09.15l-.18.86a3.25,3.25,0,0,0-.83-.13.63.63,0,0,0-.44.14,1.45,1.45,0,0,0-.26.68l-.13.62h1.1l-.16.76h-1.1l-1,5Z" transform="translate(0 -55.25)"/><path class="cls-1" d="M90.51,125.6a4,4,0,0,1,1-2.79,2.78,2.78,0,0,1,2.15-.91,2.24,2.24,0,0,1,1.67.65,2.4,2.4,0,0,1,.64,1.76,4.2,4.2,0,0,1-.4,1.84,3,3,0,0,1-1.14,1.31,2.86,2.86,0,0,1-1.56.46,2.61,2.61,0,0,1-1.22-.29,1.94,1.94,0,0,1-.84-.81A2.53,2.53,0,0,1,90.51,125.6Zm1-.09a1.75,1.75,0,0,0,.39,1.23,1.29,1.29,0,0,0,1,.42,1.58,1.58,0,0,0,.63-.13,1.83,1.83,0,0,0,.57-.38,2.62,2.62,0,0,0,.45-.6,2.88,2.88,0,0,0,.3-.72,3.17,3.17,0,0,0,.17-1,1.74,1.74,0,0,0-.39-1.21,1.27,1.27,0,0,0-1-.43,1.6,1.6,0,0,0-.84.22,2.43,2.43,0,0,0-.69.64,3,3,0,0,0-.45,1A4.28,4.28,0,0,0,91.49,125.51Z" transform="translate(0 -55.25)"/><path class="cls-1" d="M96.51,127.79l1.2-5.76h.87l-.24,1.18a3.81,3.81,0,0,1,.87-1,1.44,1.44,0,0,1,.87-.32,1.75,1.75,0,0,1,.72.21l-.4.91a1,1,0,0,0-.56-.18,1.51,1.51,0,0,0-1.06.57,4.5,4.5,0,0,0-.85,2.07l-.49,2.31Z" transform="translate(0 -55.25)"/><path class="cls-1" d="M103.56,127.79l1.66-8h1.06l-1.66,8Z" transform="translate(0 -55.25)"/><path class="cls-1" d="M106.37,127.79l1.21-5.76h.89l-.21,1a4.38,4.38,0,0,1,1.08-.87,2.17,2.17,0,0,1,1-.27,1.55,1.55,0,0,1,1.1.38,1.35,1.35,0,0,1,.4,1,5.28,5.28,0,0,1-.15,1l-.73,3.49h-1l.77-3.65a4.62,4.62,0,0,0,.11-.79.6.6,0,0,0-.2-.46.81.81,0,0,0-.57-.18,1.93,1.93,0,0,0-1.34.54,3.51,3.51,0,0,0-.87,1.86l-.55,2.68Z" transform="translate(0 -55.25)"/><path class="cls-1" d="M116.43,127a2.36,2.36,0,0,1-1.76,1,1.74,1.74,0,0,1-1.36-.61,2.53,2.53,0,0,1-.55-1.75,4.24,4.24,0,0,1,.44-1.92,3.13,3.13,0,0,1,1.07-1.3,2.36,2.36,0,0,1,1.3-.44,1.74,1.74,0,0,1,1.62,1l.65-3.1h1l-1.66,8h-.9Zm-2.69-1.57a3.05,3.05,0,0,0,.12,1,1.17,1.17,0,0,0,.41.57,1,1,0,0,0,.68.23,1.53,1.53,0,0,0,1.21-.69,3.52,3.52,0,0,0,.73-2.28,1.52,1.52,0,0,0-.36-1.07,1.2,1.2,0,0,0-.9-.38,1.27,1.27,0,0,0-.64.16,1.84,1.84,0,0,0-.57.53,3.31,3.31,0,0,0-.48,1A3.21,3.21,0,0,0,113.74,125.38Z" transform="translate(0 -55.25)"/><path class="cls-1" d="M122.65,126.75a2.89,2.89,0,0,1-2.12,1.17,1.52,1.52,0,0,1-1.07-.38,1.22,1.22,0,0,1-.41-.94,7.16,7.16,0,0,1,.18-1.24l.7-3.33h1l-.77,3.68a3.44,3.44,0,0,0-.1.72.68.68,0,0,0,.2.51.82.82,0,0,0,.58.18,1.79,1.79,0,0,0,.8-.2,2.14,2.14,0,0,0,.68-.55,2.73,2.73,0,0,0,.47-.8,6.79,6.79,0,0,0,.27-1l.52-2.49h1l-1.2,5.76h-.9Z" transform="translate(0 -55.25)"/><path class="cls-1" d="M125,125.82l1-.06a1.75,1.75,0,0,0,.13.72,1.08,1.08,0,0,0,.48.49,1.62,1.62,0,0,0,.81.19,1.57,1.57,0,0,0,1-.26.76.76,0,0,0,.33-.61.77.77,0,0,0-.2-.49,3.23,3.23,0,0,0-1-.56,8.71,8.71,0,0,1-1-.46,1.56,1.56,0,0,1-.55-.53,1.31,1.31,0,0,1-.18-.69,1.52,1.52,0,0,1,.54-1.17,2.15,2.15,0,0,1,1.52-.49,2.45,2.45,0,0,1,1.65.5,1.77,1.77,0,0,1,.58,1.32l-1,.07a1.11,1.11,0,0,0-.36-.83,1.48,1.48,0,0,0-1-.3,1.24,1.24,0,0,0-.79.23.7.7,0,0,0-.28.51.58.58,0,0,0,.25.47,3.52,3.52,0,0,0,.84.44,5.54,5.54,0,0,1,1.42.77,1.45,1.45,0,0,1,.46,1.09,1.56,1.56,0,0,1-.26.84,1.77,1.77,0,0,1-.8.66,3,3,0,0,1-1.27.25,2.92,2.92,0,0,1-1.7-.49A1.74,1.74,0,0,1,125,125.82Z" transform="translate(0 -55.25)"/><path class="cls-1" d="M132.74,127l-.16.8a2.45,2.45,0,0,1-.69.1,1.42,1.42,0,0,1-.93-.29.74.74,0,0,1-.26-.59,6.28,6.28,0,0,1,.14-.87l.7-3.35h-.77l.15-.76h.78l.3-1.41,1.12-.68-.44,2.09h1l-.17.76h-1l-.66,3.18a5.26,5.26,0,0,0-.13.73.31.31,0,0,0,.1.26.45.45,0,0,0,.33.1A2,2,0,0,0,132.74,127Z" transform="translate(0 -55.25)"/><path class="cls-1" d="M133.53,127.79l1.2-5.76h.87l-.24,1.18a3.81,3.81,0,0,1,.87-1,1.44,1.44,0,0,1,.87-.32,1.75,1.75,0,0,1,.72.21l-.4.91a1,1,0,0,0-.56-.18,1.52,1.52,0,0,0-1.06.57,4.5,4.5,0,0,0-.85,2.07l-.49,2.31Z" transform="translate(0 -55.25)"/><path class="cls-1" d="M137.19,127.79l1.2-5.76h1l-1.2,5.76Zm1.43-6.84.23-1.11h1L139.6,121Z" transform="translate(0 -55.25)"/><path class="cls-1" d="M143.92,125.83l1,.1a3,3,0,0,1-.95,1.35,2.58,2.58,0,0,1-1.76.64,2.38,2.38,0,0,1-1.18-.3,1.93,1.93,0,0,1-.81-.86,2.77,2.77,0,0,1-.28-1.28,4.11,4.11,0,0,1,.44-1.83,3.09,3.09,0,0,1,1.13-1.32,2.84,2.84,0,0,1,1.5-.43,2.2,2.2,0,0,1,1.64.64,2.43,2.43,0,0,1,.62,1.75,5.1,5.1,0,0,1-.08.86h-4.24c0,.12,0,.22,0,.31a1.84,1.84,0,0,0,.37,1.23,1.18,1.18,0,0,0,.91.43,1.73,1.73,0,0,0,1-.33A2.11,2.11,0,0,0,143.92,125.83Zm-2.85-1.42h3.23a2.13,2.13,0,0,0,0-.22,1.62,1.62,0,0,0-.37-1.13,1.25,1.25,0,0,0-.95-.39,1.75,1.75,0,0,0-1.15.43A2.62,2.62,0,0,0,141.07,124.41Z" transform="translate(0 -55.25)"/><path class="cls-1" d="M146,125.82l1-.06a1.93,1.93,0,0,0,.13.72,1.08,1.08,0,0,0,.48.49,1.66,1.66,0,0,0,.82.19,1.54,1.54,0,0,0,1-.26.76.76,0,0,0,.33-.61.77.77,0,0,0-.2-.49,3.23,3.23,0,0,0-1-.56,9.71,9.71,0,0,1-1-.46,1.65,1.65,0,0,1-.55-.53,1.31,1.31,0,0,1-.18-.69,1.52,1.52,0,0,1,.54-1.17,2.17,2.17,0,0,1,1.52-.49,2.45,2.45,0,0,1,1.65.5,1.77,1.77,0,0,1,.59,1.32l-1,.07a1.15,1.15,0,0,0-.37-.83,1.45,1.45,0,0,0-1-.3,1.22,1.22,0,0,0-.79.23.68.68,0,0,0-.29.51.6.6,0,0,0,.25.47,4,4,0,0,0,.84.44,5.54,5.54,0,0,1,1.42.77,1.45,1.45,0,0,1,.46,1.09,1.48,1.48,0,0,1-.26.84,1.72,1.72,0,0,1-.8.66,3.26,3.26,0,0,1-3-.24A1.78,1.78,0,0,1,146,125.82Z" transform="translate(0 -55.25)"/><polygon class="cls-2" points="0 0 70.85 0 35.43 58.47 12.06 19.54 30.26 19.54 31.71 17.24 10.53 17.24 9 14.65 33.35 14.65 34.81 12.36 7.47 12.36 5.93 9.77 36.45 9.77 37.99 7.33 4.59 7.33 3.06 4.89 39.54 4.89 41.17 2.3 1.53 2.3 0 0"/><path class="cls-3" d="M41.17,57.55" transform="translate(0 -55.25)"/><path class="cls-3" d="M30.26,74.79" transform="translate(0 -55.25)"/><rect class="cls-4" x="42.91" y="5.29" width="54.06" height="2.65"/><rect class="cls-4" x="42.91" width="54.06" height="2.49"/><rect class="cls-4" x="42.91" y="10.58" width="54.06" height="2.8"/><polygon class="cls-4" points="42.91 21.17 42.91 23.97 56.33 23.97 56.33 58.37 83.63 58.37 83.63 23.97 96.98 23.97 96.98 21.17 42.91 21.17"/><rect class="cls-4" x="42.91" y="15.88" width="54.06" height="2.8"/><polygon class="cls-4" points="124.27 34.24 124.27 0 97.04 0 96.98 0 96.98 2.49 96.98 5.29 96.98 7.94 96.98 10.59 96.98 13.39 96.98 15.88 96.98 18.68 96.98 21.17 96.98 23.97 96.98 37.05 151.1 37.05 151.1 34.24 124.27 34.24"/><rect class="cls-4" x="96.98" y="55.57" width="54.13" height="2.8"/><rect class="cls-4" x="96.98" y="44.98" width="54.13" height="2.64"/><rect class="cls-4" x="96.98" y="39.69" width="54.13" height="2.65"/><rect class="cls-4" x="96.98" y="50.27" width="54.13" height="2.8"/></svg>